<svg xmlns="http://www.w3.org/2000/svg" viewBox="0 0 512 512" role="img" aria-labelledby="title desc">
  <title id="title">School Logo</title>
  <desc id="desc">A formal school crest with book, torch, and laurel elements.</desc>
  <defs>
    <linearGradient id="crest" x1="96" y1="64" x2="416" y2="448" gradientUnits="userSpaceOnUse">
      <stop stop-color="#0EA5E9"/>
      <stop offset=".55" stop-color="#087DF5"/>
      <stop offset="1" stop-color="#052C78"/>
    </linearGradient>
    <linearGradient id="gold" x1="160" y1="96" x2="352" y2="420" gradientUnits="userSpaceOnUse">
      <stop stop-color="#FFF1B8"/>
      <stop offset="1" stop-color="#CA8A04"/>
    </linearGradient>
    <filter id="shadow" x="-20%" y="-20%" width="140%" height="140%">
      <feDropShadow dx="0" dy="14" stdDeviation="14" flood-color="#052C78" flood-opacity=".22"/>
    </filter>
  </defs>
  <rect width="512" height="512" rx="96" fill="#F8FBFF"/>
  <circle cx="256" cy="256" r="198" fill="#FFFFFF" stroke="#DBE5EF" stroke-width="12"/>
  <path filter="url(#shadow)" d="M256 72 390 130v105c0 86-52 155-134 196-82-41-134-110-134-196V130L256 72Z" fill="url(#crest)"/>
  <path d="M256 112 354 154v77c0 60-36 111-98 145-62-34-98-85-98-145v-77L256 112Z" fill="#FFFFFF" opacity=".13"/>
  <path d="M190 280c28-18 60-20 96-8v78c-35-13-67-11-96 8v-78Z" fill="#FFFFFF"/>
  <path d="M286 272c36-12 68-10 96 8v78c-29-19-61-21-96-8v-78Z" fill="#FFFFFF" opacity=".92"/>
  <path d="M256 190c22 18 29 35 21 52-6 13-18 21-21 36-3-15-15-23-21-36-8-17-1-34 21-52Z" fill="url(#gold)"/>
  <path d="M256 162v36" stroke="#FFF1B8" stroke-width="12" stroke-linecap="round"/>
  <path d="M202 396h108" stroke="url(#gold)" stroke-width="18" stroke-linecap="round"/>
  <path d="M126 260c-36 20-49 52-39 91 37-10 58-34 63-71" fill="none" stroke="#16A34A" stroke-width="14" stroke-linecap="round"/>
  <path d="M386 260c36 20 49 52 39 91-37-10-58-34-63-71" fill="none" stroke="#16A34A" stroke-width="14" stroke-linecap="round"/>
  <text x="256" y="462" text-anchor="middle" font-family="Georgia, 'Times New Roman', serif" font-size="34" font-weight="700" fill="#052C78">SCHOOL</text>
</svg>
